<svg xmlns="http://www.w3.org/2000/svg" viewBox="0 0 25 10.52"><defs><style>.cls-1{fill:#fff;}</style></defs><g id="Capa_2" data-name="Capa 2"><g id="Capa_1-2" data-name="Capa 1"><path class="cls-1" d="M6.88,8.81H4a.37.37,0,0,1-.37-.37v-.3A.37.37,0,0,1,4,7.77H6.88a.36.36,0,0,1,.37.37v.3a.36.36,0,0,1-.37.37"/><path class="cls-1" d="M6.58,10H4.26A.28.28,0,0,1,4,9.71V9.48a.28.28,0,0,1,.28-.27H6.58a.27.27,0,0,1,.28.27v.23a.27.27,0,0,1-.28.28"/><path class="cls-1" d="M5.75,10.52H5.1a.47.47,0,0,1-.46-.47V9.67a.46.46,0,0,1,.46-.46h.65a.46.46,0,0,1,.46.46v.38a.47.47,0,0,1-.46.47"/><path class="cls-1" d="M9.24,2.13a1.42,1.42,0,0,0-.42.06,3.69,3.69,0,0,0-6.75,0,1.33,1.33,0,0,0-.45-.07,1.61,1.61,0,1,0,0,3.22,1.93,1.93,0,0,0,.49-.07,3.69,3.69,0,0,0,6.67,0,1.76,1.76,0,0,0,.46.06,1.63,1.63,0,0,0,1.65-1.61A1.63,1.63,0,0,0,9.24,2.13"/><path class="cls-1" d="M12.89,7.29a.81.81,0,0,1-.23.59.76.76,0,0,1-.58.22h-.34a.34.34,0,0,1-.34-.34h0a.32.32,0,0,1,.33-.32.09.09,0,0,0,.08-.09V4.86a.54.54,0,0,1,.54-.54.54.54,0,0,1,.54.54Z"/><path class="cls-1" d="M15.5,4.91v2.7a.54.54,0,0,1-.54.54h-.54V8.08a.78.78,0,0,1-.35.07H14a.81.81,0,0,1-.59-.23.78.78,0,0,1-.22-.58V4.91a.54.54,0,1,1,1.08,0V7.39a.07.07,0,0,0,.08.08.08.08,0,0,0,.08-.08V4.91a.54.54,0,1,1,1.08,0"/><path class="cls-1" d="M17.89,4.59a.78.78,0,0,1,.22.59V7.61a.54.54,0,0,1-1.08,0V5.13a.08.08,0,1,0-.16,0V7.61a.54.54,0,0,1-1.08,0V4.91a.54.54,0,0,1,.54-.54h.54v.09a.84.84,0,0,1,.4-.09h0a.78.78,0,0,1,.59.22"/><path class="cls-1" d="M20.43,4.37a.34.34,0,0,1,.34.34V7.34a.81.81,0,0,1-.23.59.85.85,0,0,1-.6.22h-1.2a.34.34,0,0,1,0-.68h.85a.08.08,0,0,0,.08-.08v0a.08.08,0,0,0-.1-.08,1.09,1.09,0,0,1-.26,0h-.08a.77.77,0,0,1-.83-.81V5.18a.79.79,0,0,1,.23-.59.81.81,0,0,1,.6-.22h.08a1,1,0,0,1,.36.06V4.37Zm-.76,2.19V5.13A.09.09,0,0,0,19.59,5h0a.09.09,0,0,0-.08.09V6.56a.09.09,0,0,0,.08.08h0a.09.09,0,0,0,.08-.08"/><path class="cls-1" d="M21.6,4.37h0a.54.54,0,0,1,.54.54V7.39a.08.08,0,0,0,.08.08.25.25,0,0,1,.25.25v.1a.33.33,0,0,1-.33.33h-.27a.77.77,0,0,1-.81-.81V4.91a.54.54,0,0,1,.54-.54"/><path class="cls-1" d="M24.78,4.59a.78.78,0,0,1,.22.59v.57a.78.78,0,0,1-.78.78h-.38a.07.07,0,0,0-.08.08v.78a.07.07,0,0,0,.08.08.08.08,0,0,0,.08-.08V7.23a.54.54,0,1,1,1.08,0v.11a.78.78,0,0,1-.22.58.81.81,0,0,1-.59.23h-.7a.81.81,0,0,1-.59-.23.78.78,0,0,1-.22-.58V5.18a.78.78,0,0,1,.22-.59.8.8,0,0,1,.59-.22h.7a.8.8,0,0,1,.59.22m-.86,1.18V5.13A.09.09,0,0,0,23.84,5a.08.08,0,0,0-.08.09v.64a.07.07,0,0,0,.08.08.08.08,0,0,0,.08-.08"/><path class="cls-1" d="M13.4,3.16a.16.16,0,0,1-.09,0,.14.14,0,0,1,0-.09.16.16,0,0,1,0-.09.16.16,0,0,1,.09,0h.4a.12.12,0,0,0,.1-.18v0h0a.71.71,0,0,0-.25-.24.63.63,0,0,0-.33-.09.7.7,0,0,0-.49.2.66.66,0,0,0-.2.48.68.68,0,0,0,.69.69.67.67,0,0,0,.48-.2,1,1,0,0,0,.13-.18.14.14,0,0,0-.11-.2h-.4Z"/><path class="cls-1" d="M15.58,2.84a.46.46,0,0,1-.06.23.39.39,0,0,1-.15.16l.06.07a.24.24,0,0,1,0,.36.25.25,0,0,1-.16.08h-.8a.25.25,0,0,1-.18-.08.24.24,0,0,1-.07-.18V2.71a.33.33,0,0,1,.1-.24.3.3,0,0,1,.24-.1h.55a.45.45,0,0,1,.33.14.42.42,0,0,1,.14.33"/><path class="cls-1" d="M16.07,3.74a.25.25,0,0,1-.18-.08.24.24,0,0,1-.07-.18V2.63a.24.24,0,0,1,.07-.18.22.22,0,0,1,.18-.08h.86a.22.22,0,0,1,.18.08.24.24,0,0,1,.07.18.23.23,0,0,1-.11.21.23.23,0,0,1,.11.21.23.23,0,0,1-.11.22.23.23,0,0,1,.11.21.24.24,0,0,1-.07.18.25.25,0,0,1-.18.08Z"/><path class="cls-1" d="M17.68,3.74a.27.27,0,0,1-.26-.26.27.27,0,0,1,0-.12l.42-.84a.18.18,0,0,1,.05-.07.24.24,0,0,1,.36,0,.2.2,0,0,1,.06.07l.38.77,0,.07a.27.27,0,0,1,0,.12.25.25,0,0,1,0,.12l-.1.1a.28.28,0,0,1-.13,0Z"/><path class="cls-1" d="M19.62,2.88v.6a.26.26,0,0,1-.52,0v-.6h-.17a.24.24,0,0,1-.25-.25.25.25,0,0,1,.07-.19.24.24,0,0,1,.18-.07h.86a.24.24,0,0,1,.18.07.25.25,0,0,1,.07.19.24.24,0,0,1-.25.25Z"/><path class="cls-1" d="M20.79,3.48a.24.24,0,0,1-.07.18.24.24,0,0,1-.36,0,.22.22,0,0,1-.08-.18V2.62a.22.22,0,0,1,.08-.18.25.25,0,0,1,.43.18Z"/><path class="cls-1" d="M22.14,2.37a.2.2,0,0,1,.13,0,.32.32,0,0,1,.1.1.21.21,0,0,1,0,.12.19.19,0,0,1,0,.12l0,.06L22,3.59s0,.05-.06.07a.24.24,0,0,1-.36,0l-.05-.07-.42-.84a.27.27,0,0,1,0-.12.22.22,0,0,1,.08-.18.22.22,0,0,1,.18-.08Z"/><path class="cls-1" d="M22.89,3.74a.27.27,0,0,1-.26-.26V2.63a.25.25,0,0,1,.08-.18.22.22,0,0,1,.18-.08h.85a.22.22,0,0,1,.18.08.25.25,0,0,1,.08.18.24.24,0,0,1-.12.21.24.24,0,0,1,.12.21.24.24,0,0,1-.12.22.24.24,0,0,1,.12.21.27.27,0,0,1-.26.26Z"/></g></g></svg>